<?xml version="1.0" standalone="no"?>
<!DOCTYPE svg PUBLIC "-//W3C//DTD SVG 20010904//EN"
 "http://www.w3.org/TR/2001/REC-SVG-20010904/DTD/svg10.dtd">
<svg version="1.0" xmlns="http://www.w3.org/2000/svg"
 width="16.000000pt" height="16.000000pt" viewBox="0 0 16.000000 16.000000"
 preserveAspectRatio="xMidYMid meet">

<g transform="translate(0.000000,16.000000) scale(0.100000,-0.100000)"
fill="#000000" stroke="none">
<path d="M22 83 l3 -68 49 -3 c27 -2 54 2 59 7 8 8 -4 11 -41 11 l-52 0 0 50
0 50 46 0 c45 0 45 0 42 -32 -2 -28 -8 -34 -30 -36 -23 -3 -28 1 -28 17 0 25
27 28 33 4 3 -11 5 -7 6 10 1 25 -2 28 -26 25 -23 -2 -29 -8 -31 -35 -3 -33
-3 -33 42 -33 l46 0 0 50 0 50 -60 0 -61 0 3 -67z"/>
</g>
</svg>
