<?xml version="1.0" encoding="UTF-8"?>
<svg id="Layer_1" xmlns="http://www.w3.org/2000/svg" xmlns:xlink="http://www.w3.org/1999/xlink" version="1.1" viewBox="0 0 120 120">
  <!-- Generator: Adobe Illustrator 29.4.0, SVG Export Plug-In . SVG Version: 2.1.0 Build 152)  -->
  <defs>
    <style>
      .st0 {
        fill: none;
      }

      .st1 {
        fill: #fcee1e;
      }

      .st2 {
        clip-path: url(#clippath-1);
      }

      .st3 {
        clip-path: url(#clippath-3);
      }

      .st4 {
        clip-path: url(#clippath-2);
      }

      .st5 {
        fill: #fff;
      }

      .st6 {
        fill: #222221;
      }

      .st7 {
        clip-path: url(#clippath);
      }
    </style>
    <clipPath id="clippath">
      <rect class="st0" x="-45.3" y="-312.9" width="210.4" height="64.9"/>
    </clipPath>
    <clipPath id="clippath-1">
      <rect class="st0" x="-64.2" y="-368.1" width="248.5" height="175.9"/>
    </clipPath>
    <clipPath id="clippath-2">
      <rect class="st0" x="300.5" y="-309.4" width="188.3" height="57.8"/>
    </clipPath>
    <clipPath id="clippath-3">
      <rect class="st0" x="267.1" y="-369.9" width="248.5" height="175.9"/>
    </clipPath>
  </defs>
  <rect class="st1" width="120.8" height="120.8"/>
  <path class="st1" d="M-129.7-486h-26.2c-1,0-1.9-.8-1.9-1.9v-20.6c0-1,.8-1.9,1.9-1.9h18.6c1,0,1.9.8,1.9,1.9v13.3c0,1-.8,1.9-1.9,1.9h-11.3c-1,0-1.9-.8-1.9-1.9v-6.7c0-1,.8-1.9,1.9-1.9s1.9.8,1.9,1.9v4.9h7.5v-9.5h-14.8v16.9h22.5v-24.7h-24.4c-1,0-1.9-.8-1.9-1.9s.8-1.9,1.9-1.9h26.2c1,0,1.9.8,1.9,1.9v28.3c0,1-.8,1.9-1.9,1.9h0Z"/>
  <path class="st1" d="M-124.8-488.9v-26.2c0-1,.9-1.9,1.9-1.9h21.3c1.1,0,1.9.8,1.9,1.9v18.6c0,1-.9,1.9-1.9,1.9h-13.7c-1.1,0-1.9-.8-1.9-1.9v-11.3c0-1,.9-1.9,1.9-1.9h7c1.1,0,1.9.8,1.9,1.9s-.9,1.9-1.9,1.9h-5v7.5h9.8v-14.8h-17.4v22.5h25.3v-24.4c0-1,.9-1.9,1.9-1.9s1.9.8,1.9,1.9v26.2c0,1-.9,1.9-1.9,1.9h-29.1c-1.1,0-1.9-.8-1.9-1.9h0Z"/>
  <path class="st1" d="M-119.9-483h26.2c1,0,1.9.9,1.9,1.9v21.3c0,1.1-.8,1.9-1.9,1.9h-18.6c-1,0-1.9-.9-1.9-1.9v-13.7c0-1.1.8-1.9,1.9-1.9h11.3c1,0,1.9.9,1.9,1.9v6.9c0,1.1-.8,1.9-1.9,1.9s-1.9-.9-1.9-1.9v-5h-7.5v9.8h14.8v-17.4h-22.5v25.3h24.3c1,0,1.9.9,1.9,1.9s-.8,1.9-1.9,1.9h-26.2c-1,0-1.9-.9-1.9-1.9v-29.1c0-1.1.8-1.9,1.9-1.9h0Z"/>
  <path class="st1" d="M-125.8-479.1v26.2c0,1-.8,1.9-1.9,1.9h-20.6c-1,0-1.9-.8-1.9-1.9v-18.6c0-1,.8-1.9,1.9-1.9h13.3c1,0,1.9.8,1.9,1.9v11.3c0,1-.8,1.9-1.9,1.9h-6.7c-1,0-1.9-.8-1.9-1.9s.8-1.9,1.9-1.9h4.9v-7.5h-9.5v14.8h16.9v-22.5h-24.5v24.3c0,1-.8,1.9-1.9,1.9s-1.9-.8-1.9-1.9v-26.2c0-1,.8-1.9,1.9-1.9h28.3c1,0,1.9.8,1.9,1.9h-.2Z"/>
  <path class="st1" d="M42.2-460.4c-.7,0-1.2-.2-1.6-.5-.4-.3-.6-.7-.7-1.1h-1.8c-.9,0-1.8,0-2.5-.3-.7-.2-1.3-.4-1.8-.8-.5-.4-.9-1-1.1-1.6-.3-.7-.4-1.5-.4-2.6v-1.7c0-1.8.3-3.3.9-4.5.6-1.2,1.4-2.1,2.5-2.6,1-.6,2.2-.9,3.6-.9h3.5c0,.2-.1.4-.1.6v.7c0,.4,0,.8.2,1.2.1.4.3.7.5.9-.1,0-.3,0-.5,0h-.6c-.7,0-1.2-.2-1.6-.6-.4-.4-.6-.8-.6-1.4v-.4h-.5c-.7,0-1.4.2-2,.7-.6.4-1.1,1.2-1.4,2.2-.3,1-.5,2.3-.5,3.9v2.1c0,.7,0,1.4.2,1.8.2.5.4.8.7,1.1s.6.5,1.1.6c.4,0,.9,0,1.4,0h1c0-.4.3-.8.7-1.1s.9-.5,1.6-.5.4,0,.6,0,.3,0,.4,0c-.2.2-.3.5-.5.9s-.2.7-.2,1.2,0,.8.2,1.2c.1.4.3.6.5.9-.1,0-.3,0-.4,0h-.6l-.2.2ZM18.5-461.3h-.7c-.2,0-.4,0-.5-.2.2-.3.4-.6.5-.9,0-.3.1-.7.1-1.1v-.8c0-.3,0-.5-.1-.7h12.9c0,.2-.1.4-.1.7v.8c0,.4,0,.8.1,1.1,0,.3.2.6.4.9-.1,0-.3,0-.5.2h-.7c-.7,0-1.2-.2-1.6-.5-.4-.4-.5-.8-.5-1.4v-.5h-7.3v.5c0,.6-.2,1.1-.5,1.4-.4.4-.9.5-1.5.5h0ZM23.3-470.6c.5,0,.9-.3,1.4-.7.4-.3.8-.7,1-1.2s.4-1.1.4-1.7-.1-1.1-.3-1.3c-.2-.3-.5-.4-1-.4s-.7,0-1,.3-.5.6-.7,1c-.1.4-.2,1-.2,1.6s0,1,.1,1.4c0,.4.2.7.3,1ZM22.6-464.7c-.5-.6-.9-1.3-1.4-2.1-.4-.8-.8-1.6-1.1-2.5s-.4-1.8-.4-2.7.2-2,.6-2.8c.4-.8,1-1.4,1.7-1.8.8-.4,1.8-.7,2.9-.7s2.5.3,3.2.9c.7.6,1.1,1.4,1.1,2.5s-.1,1.3-.4,1.8c-.3.5-.7.9-1.2,1.3-.5.3-1.1.6-1.8.9-.7.2-1.4.4-2.1.5.2.5.4,1,.7,1.6s.6,1.1,1,1.7c.4.5.7,1,1.1,1.5h-4,0ZM10-461.7c-1.2,0-2.1-.2-2.8-.6s-1.1-.9-1.4-1.7c-.3-.7-.4-1.6-.4-2.7v-4c0-.4-.1-.8-.3-1s-.5-.3-.8-.3h-.9v-2.6c0-.4,0-.7-.3-.9-.2-.2-.4-.3-.7-.3v-1l3.7-.3c.2,0,.4.4.5.6,0,.3.1.6.1,1v2.1h.4c.5,0,.9.2,1.2.5s.4.8.4,1.4v5.7c0,1,.1,1.7.4,2.2.3.5.7.7,1.2.7s1-.2,1.4-.5c.4-.4.7-.9.9-1.7s.3-1.9.3-3.2v-5.8c0-.6,0-1-.3-1.2-.2-.2-.5-.3-.9-.3v-1.1l4.1-.3c.2.2.3.5.3.9s.1.7.1,1.2v6.8c0,1.3-.2,2.5-.7,3.4-.5,1-1.2,1.7-2.1,2.2-.9.5-2.1.8-3.4.8ZM-3.4-470.8h.3l.4-.9c.2-.4.3-.7.4-1.1.1-.4.2-.8.2-1.2s-.1-1-.4-1.3c-.3-.3-.6-.4-1.1-.4h-1.1c0,.5-.2,1-.2,1.4v1.3c0,.8.1,1.4.3,1.7s.6.5,1.3.5h0ZM-14.1-468.7c.3,0,.6,0,.8,0s.4-.2.6-.3v-6.6h-.3c-.9,0-1.6.4-2.1,1.1-.5.7-.8,1.7-.8,3.1s.2,1.7.5,2.2.8.7,1.3.7h0ZM-6.1-461.9s-.1-.2-.1-.3v-.4c0-.2,0-.5.1-.8,0-.3.2-.6.3-.9l2.1-5h-.7c-1.2,0-2.1-.3-2.7-.8-.5-.6-.8-1.5-.8-2.7v-1.4c0-.5.1-1,.2-1.5h-2v6.6c-.6.4-1.2.9-2,1.2-.8.4-1.7.5-2.7.5s-2.5-.4-3.3-1.1-1.2-1.8-1.2-3.2.5-3,1.6-3.9,2.5-1.4,4.5-1.4H-3.1c1.4,0,2.5.3,3.1.9.6.6,1,1.3,1,2.3s0,.7-.1,1c0,.4-.2.8-.4,1.2s-.4,1-.6,1.6l-2.2,5.3c0,.2-.1.4-.2.5v.4c0,.2,0,.4.2.5.1,0,.3,0,.6,0v1.1l-4.2.3h-.2ZM-33.2-470c.5,0,1-.3,1.4-.5s.7-.5,1-.8.4-.8.4-1.2-.1-.8-.4-1c-.2-.2-.6-.3-1-.3s-1,.2-1.3.6c-.3.4-.5.9-.5,1.6v.9c0,.3.2.6.3.8h.1ZM-34.5-466c-.5-.4-.9-.9-1.3-1.3-.4-.5-.7-1-.9-1.5-.2-.6-.3-1.2-.3-1.9s.2-1.6.6-2.2c.4-.7,1-1.2,1.8-1.5.8-.4,1.8-.6,3-.6s2.5.2,3.3.7c.7.5,1.1,1.1,1.1,2s-.1,1.1-.4,1.5c-.3.4-.7.8-1.2,1.1s-1.1.5-1.7.7c-.6.2-1.3.3-2.1.4.3.5.7,1,1.2,1.4.5.5,1.1.9,1.7,1.3h-4.8ZM-37.7-475h-.7c-.2,0-.4,0-.5-.2.2-.2.4-.5.5-.8s.2-.7.2-1.2,0-.8-.2-1.2c-.1-.3-.3-.6-.5-.9.2,0,.3-.2.5-.2h.7c.6,0,1.1.2,1.4.5.3.3.6.7.7,1.1h7.4c0-.4.3-.8.7-1.1s.8-.5,1.5-.5h.7c.2,0,.4,0,.5.2-.2.2-.4.5-.5.9-.1.3-.2.7-.2,1.1s0,.8.2,1.2c.1.3.3.6.5.9-.1,0-.3.2-.5.2h-.7c-.6,0-1.1-.2-1.4-.5-.3-.3-.6-.7-.7-1.2h-7.4c-.1.4-.4.8-.7,1.2-.3.3-.8.5-1.4.5h-.1ZM-39-463.1h-.7c-.2,0-.4,0-.5-.2.2-.3.4-.6.5-1,0-.3.1-.7.1-1.1v-.8c0-.3,0-.5-.1-.7h5.7v1.3h-2.9v.5c0,.6-.2,1.1-.5,1.4-.4.4-.9.5-1.5.5h-.1ZM-33.3-474.6v-3h2.9v3h-2.9ZM-28.1-461.9c-.1-.2-.2-.5-.3-.8v-2c0-.3,0-.6-.2-.7-.1-.2-.4-.2-.7-.2h-6.3v-1.3h8.6c.8,0,1.3.2,1.6.5s.5.8.5,1.4v.7c0,.4,0,.7.3.9.2.2.5.2.9.2v1l-4.2.3h-.2ZM-46.6-462c-1.7,0-3-.3-3.9-1s-1.4-1.7-1.4-3.2,0-1.3.3-1.8c.2-.5.5-1,.8-1.5s.7-.9,1.2-1.2c.4-.4.9-.7,1.3-1.1.6-.5,1.1-.9,1.5-1.2s.7-.6.9-.9.3-.6.3-.9,0-.6-.3-.7c-.2-.2-.4-.3-.7-.3v-1.1l3.9-.3c0,.2.2.4.3.7s.2.6.2,1.1-.1,1.3-.4,1.8c-.2.5-.6,1.1-1.2,1.6-.5.5-1.2,1.1-2.1,1.8-.7.5-1.2,1-1.7,1.4-.4.4-.7.9-.9,1.3-.2.4-.3,1-.3,1.6s0,.9.3,1.3c.2.4.5.7.8.9.4.2.8.3,1.4.3h.5v1.3h-.8ZM-42.6-460.3c-.7,0-1.2-.2-1.5-.5s-.5-.7-.7-1.2h-1.6v-1.3h1.6c0-.4.3-.8.7-1.1.3-.3.8-.5,1.5-.5h.7c.2,0,.4,0,.5.2-.2.2-.4.5-.5.8s-.2.7-.2,1.2,0,.8.2,1.2c.1.4.3.6.5.8-.1,0-.3,0-.5.2h-.7v.2ZM-58.1-467.4h.5c.5,0,1-.2,1.3-.5.3-.4.6-.9.7-1.5.2-.7.2-1.4.2-2.3s0-1.5-.2-2.1c0-.6-.4-1.1-.7-1.4-.3-.4-.7-.5-1.2-.5h-.6s0,8.3,0,8.3ZM-67.4-466.1h.5c.2,0,.3,0,.4,0v-9.5h-.2c-.4,0-.8,0-1.2.4-.3.2-.7.6-.9,1.1-.3.4-.5,1-.6,1.6s-.2,1.4-.2,2.2c0,1.6.2,2.7.6,3.4s1,1,1.6,1h0ZM-67.8-464.8c-1.6,0-2.9-.5-3.8-1.5s-1.3-2.3-1.3-4.1,0-1.9.4-2.7.7-1.5,1.2-2.1,1.2-1,2-1.3,1.7-.5,2.7-.5h9.3c1.6,0,2.8.4,3.8,1.2s1.4,2.1,1.4,3.9-.2,2.1-.6,3-1,1.5-1.8,2-1.8.7-3,.7h-3.8v-9.6h-2.1v9.9c-.4.2-1,.4-1.8.7s-1.7.4-2.7.4h.1Z"/>
  <path class="st1" d="M103.6-486v-13.4h3.1l.3,2.5c.5-.9,1.1-1.5,2-2.1.8-.5,1.8-.8,3-.8v3.6h-1c-.8,0-1.4.1-2,.4-.6.2-1.1.6-1.4,1.2-.3.6-.5,1.4-.5,2.4v6.1h-3.5ZM94.9-496.9c-.8,0-1.6.2-2.2.7s-1.1,1.2-1.2,2.2h6.7c0-.9-.4-1.6-1-2.1s-1.3-.8-2.2-.8h0ZM94.8-485.7c-1.3,0-2.5-.3-3.6-.9-1-.6-1.9-1.4-2.5-2.4s-.9-2.2-.9-3.6.3-2.6.9-3.7,1.4-1.9,2.4-2.5,2.3-.9,3.7-.9,2.5.3,3.5.9,1.8,1.4,2.3,2.4c.6,1,.9,2.1.9,3.3s0,.4,0,.6v.7h-10.2c0,1,.4,1.9,1.1,2.5s1.5.9,2.4.9,1.3-.2,1.8-.5.8-.7,1.1-1.2h3.5c-.3.8-.7,1.6-1.3,2.3-.6.7-1.3,1.2-2.2,1.6-.8.4-1.8.6-2.9.6h0ZM78.4-488.7c1.1,0,2-.4,2.7-1.1.7-.8,1.1-1.7,1.1-2.9s-.4-2.1-1.1-2.9c-.7-.8-1.6-1.1-2.7-1.1s-2,.4-2.7,1.1-1.1,1.7-1.1,2.9.4,2.1,1.1,2.9c.7.8,1.6,1.1,2.7,1.1ZM77.7-485.7c-1.3,0-2.4-.3-3.4-.9-1-.6-1.8-1.4-2.3-2.5s-.9-2.3-.9-3.6.3-2.5.9-3.6c.6-1.1,1.4-1.9,2.3-2.5,1-.6,2.1-.9,3.4-.9s1.9.2,2.6.6c.8.4,1.4.9,1.8,1.6v-7.9h3.5v19.4h-3.1l-.4-1.9c-.4.6-1,1.1-1.7,1.6s-1.6.7-2.8.7h0ZM55.9-486v-19.4h3.5v8.1c.4-.7,1.1-1.3,1.8-1.7.8-.4,1.7-.6,2.6-.6,1.7,0,2.9.5,3.8,1.6.9,1,1.4,2.6,1.4,4.6v7.6h-3.4v-7.2c0-1.2-.2-2-.7-2.6-.4-.6-1.2-.9-2.2-.9s-1.8.3-2.4,1c-.6.7-.9,1.6-.9,2.9v6.9h-3.5v-.3ZM46.5-488.4c1,0,1.8-.3,2.3-1,.6-.6.9-1.4,1.1-2.4h-2.9c-.9,0-1.6.2-2,.5s-.6.7-.6,1.2.2.9.6,1.2c.4.3.9.4,1.6.4h-.1ZM45.7-485.7c-1.2,0-2.1-.2-2.8-.5-.7-.4-1.3-.9-1.6-1.5-.4-.6-.5-1.3-.5-2,0-1.2.5-2.2,1.5-3s2.4-1.2,4.4-1.2h3.4v-.3c0-.9-.3-1.6-.8-2s-1.2-.6-1.9-.6-1.3.2-1.8.5-.8.8-1,1.5h-3.4c0-1,.4-1.8,1-2.5s1.3-1.3,2.2-1.6c.9-.4,1.9-.6,3-.6,1.9,0,3.4.5,4.5,1.4s1.6,2.3,1.6,4v8.2h-2.9l-.3-2.2c-.4.7-1,1.3-1.7,1.8s-1.6.7-2.7.7h-.2ZM18.2-486v-18.9h4.1l6,12,5.9-12h4.1v18.9h-3.5v-13l-5.3,10.3h-2.7l-5.3-10.3v13h-3.5.2ZM3.1-488.4c1,0,1.8-.3,2.3-1,.6-.6.9-1.4,1.1-2.4h-2.9c-.9,0-1.6.2-2,.5s-.6.7-.6,1.2.2.9.6,1.2c.4.3.9.4,1.6.4h-.1ZM2.3-485.7c-1.2,0-2.1-.2-2.8-.5-.7-.4-1.3-.9-1.6-1.5s-.5-1.3-.5-2c0-1.2.5-2.2,1.5-3s2.4-1.2,4.4-1.2h3.4v-.3c0-.9-.3-1.6-.8-2s-1.2-.6-1.9-.6-1.3.2-1.8.5-.8.8-1,1.5h-3.4c0-1,.4-1.8,1-2.5s1.3-1.3,2.2-1.6c.9-.4,1.9-.6,3-.6,1.9,0,3.4.5,4.5,1.4,1.1,1,1.6,2.3,1.6,4v8.2h-2.9l-.3-2.2c-.4.7-1,1.3-1.7,1.8s-1.6.7-2.7.7h-.2ZM-11.2-480.1v-2.9h1.1c.6,0,1,0,1.3-.4s.4-.6.4-1.2v-14.8h3.5v14.8c0,1.6-.4,2.8-1.2,3.5s-1.9,1-3.3,1h-1.8ZM-6.8-501.5c-.6,0-1.2-.2-1.6-.6-.4-.4-.6-.9-.6-1.4s.2-1,.6-1.4c.4-.4.9-.6,1.6-.6s1.1.2,1.5.6.6.8.6,1.4-.2,1.1-.6,1.4c-.4.4-.9.6-1.5.6ZM-17.5-496.9c-.8,0-1.6.2-2.2.7-.6.5-1.1,1.2-1.2,2.2h6.7c0-.9-.4-1.6-1-2.1s-1.3-.8-2.2-.8h-.1ZM-17.5-485.7c-1.4,0-2.5-.3-3.6-.9-1-.6-1.9-1.4-2.5-2.4s-.9-2.2-.9-3.6.3-2.6.9-3.7c.6-1.1,1.4-1.9,2.4-2.5s2.3-.9,3.7-.9,2.5.3,3.5.9,1.8,1.4,2.3,2.4c.6,1,.9,2.1.9,3.3s0,.4,0,.6v.7h-10.2c0,1,.4,1.9,1.1,2.5.7.6,1.5.9,2.4.9s1.3-.2,1.8-.5.8-.7,1.1-1.2h3.5c-.3.8-.7,1.6-1.3,2.3s-1.3,1.2-2.2,1.6c-.8.4-1.8.6-2.9.6h0ZM-33.7-486v-13.4h3.1l.3,2.5c.5-.9,1.1-1.5,2-2.1.8-.5,1.8-.8,3-.8v3.6h-1c-.8,0-1.4.1-2,.4-.6.2-1.1.6-1.4,1.2-.3.6-.5,1.4-.5,2.4v6.1h-3.5ZM-42.5-496.9c-.8,0-1.6.2-2.2.7s-1.1,1.2-1.2,2.2h6.7c0-.9-.4-1.6-1-2.1s-1.3-.8-2.2-.8h-.1ZM-42.5-485.7c-1.3,0-2.5-.3-3.6-.9-1-.6-1.9-1.4-2.5-2.4s-.9-2.2-.9-3.6.3-2.6.9-3.7,1.4-1.9,2.4-2.5,2.3-.9,3.7-.9,2.5.3,3.5.9,1.8,1.4,2.3,2.4c.6,1,.9,2.1.9,3.3s0,.4,0,.6v.7h-10.2c0,1,.4,1.9,1.1,2.5s1.5.9,2.4.9,1.3-.2,1.8-.5.8-.7,1.1-1.2h3.5c-.3.8-.7,1.6-1.3,2.3s-1.3,1.2-2.2,1.6c-.8.4-1.8.6-2.9.6h0ZM-72-486v-18.9h4.1l6,12,5.9-12h4.1v18.9h-3.5v-13l-5.3,10.3h-2.7l-5.3-10.3v13h-3.5.2Z"/>
  <path class="st6" d="M183.8-573.2h-26.2c-1,0-1.9-.8-1.9-1.9v-20.6c0-1,.8-1.9,1.9-1.9h18.6c1,0,1.9.8,1.9,1.9v13.3c0,1-.8,1.9-1.9,1.9h-11.3c-1,0-1.9-.8-1.9-1.9v-6.7c0-1,.8-1.9,1.9-1.9s1.9.8,1.9,1.9v4.9h7.5v-9.5h-14.8v16.9h22.5v-24.7h-24.4c-1,0-1.9-.8-1.9-1.9s.8-1.9,1.9-1.9h26.2c1,0,1.9.8,1.9,1.9v28.3c0,1-.8,1.9-1.9,1.9h0Z"/>
  <path class="st6" d="M188.7-576.1v-26.2c0-1,.9-1.9,1.9-1.9h21.3c1.1,0,1.9.8,1.9,1.9v18.6c0,1-.9,1.9-1.9,1.9h-13.7c-1.1,0-1.9-.8-1.9-1.9v-11.3c0-1,.9-1.9,1.9-1.9h7c1.1,0,1.9.8,1.9,1.9s-.9,1.9-1.9,1.9h-5v7.5h9.8v-14.8h-17.4v22.5h25.3v-24.4c0-1,.9-1.9,1.9-1.9s1.9.8,1.9,1.9v26.2c0,1-.9,1.9-1.9,1.9h-29.1c-1.1,0-1.9-.8-1.9-1.9h0Z"/>
  <path class="st6" d="M193.6-570.2h26.2c1,0,1.9.9,1.9,1.9v21.3c0,1.1-.8,1.9-1.9,1.9h-18.6c-1,0-1.9-.9-1.9-1.9v-13.7c0-1.1.8-1.9,1.9-1.9h11.3c1,0,1.9.9,1.9,1.9v6.9c0,1.1-.8,1.9-1.9,1.9s-1.9-.9-1.9-1.9v-5h-7.5v9.8h14.8v-17.4h-22.5v25.3h24.3c1,0,1.9.9,1.9,1.9s-.8,1.9-1.9,1.9h-26.2c-1,0-1.9-.9-1.9-1.9v-29.1c0-1.1.8-1.9,1.9-1.9h0Z"/>
  <path class="st6" d="M20.4,10.1h79.5c3,0,5.8,2.7,5.8,5.8v64.6c0,3.3-2.4,5.8-5.8,5.8h-56.4c-3,0-5.8-2.7-5.8-5.8v-41.5c0-3.3,2.4-5.8,5.8-5.8h34.3c3,0,5.8,2.7,5.8,5.8v20.9c0,3.3-2.4,5.8-5.8,5.8s-5.8-2.7-5.8-5.8v-15.2h-22.7v29.7h44.9V21.6H25.9v76.7h73.7c3,0,5.8,2.7,5.8,5.8s-2.4,5.8-5.8,5.8H20.1c-3,0-5.8-2.7-5.8-5.8V15.9c0-3.3,2.4-5.8,5.8-5.8h.3Z"/>
  <path class="st6" d="M187.7-566.3v26.2c0,1-.8,1.9-1.9,1.9h-20.6c-1,0-1.9-.8-1.9-1.9v-18.6c0-1,.8-1.9,1.9-1.9h13.3c1,0,1.9.8,1.9,1.9v11.3c0,1-.8,1.9-1.9,1.9h-6.7c-1,0-1.9-.8-1.9-1.9s.8-1.9,1.9-1.9h4.9v-7.5h-9.5v14.8h16.9v-22.5h-24.5v24.3c0,1-.8,1.9-1.9,1.9s-1.9-.8-1.9-1.9v-26.2c0-1,.8-1.9,1.9-1.9h28.3c1,0,1.9.8,1.9,1.9h-.2Z"/>
  <path class="st6" d="M355.7-547.6c-.7,0-1.2-.2-1.6-.5-.4-.3-.6-.7-.7-1.1h-1.8c-.9,0-1.8,0-2.5-.3-.7-.2-1.3-.4-1.8-.8-.5-.4-.9-1-1.1-1.6-.3-.7-.4-1.5-.4-2.6v-1.7c0-1.8.3-3.3.9-4.5.6-1.2,1.4-2.1,2.5-2.6,1-.6,2.2-.9,3.6-.9h3.5c0,.2-.1.4-.1.6v.7c0,.4,0,.8.2,1.2.1.4.3.7.5.9-.1,0-.3,0-.5,0h-.6c-.7,0-1.2-.2-1.6-.6-.4-.4-.6-.8-.6-1.4v-.4h-.5c-.7,0-1.4.2-2,.7-.6.4-1.1,1.2-1.4,2.2-.3,1-.5,2.3-.5,3.9v2.1c0,.7,0,1.4.2,1.8.2.5.4.8.7,1.1s.6.5,1.1.6c.4,0,.9,0,1.4,0h1c0-.4.3-.8.7-1.1s.9-.5,1.6-.5.4,0,.6,0,.3,0,.4,0c-.2.2-.3.5-.5.9s-.2.7-.2,1.2,0,.8.2,1.2c.1.4.3.6.5.9-.1,0-.3,0-.4,0h-.6l-.2.2ZM332-548.5h-.7c-.2,0-.4,0-.5-.2.2-.3.4-.6.5-.9,0-.3.1-.7.1-1.1v-.8c0-.3,0-.5-.1-.7h12.9c0,.2-.1.4-.1.7v.8c0,.4,0,.8.1,1.1,0,.3.2.6.4.9-.1,0-.3,0-.5.2h-.7c-.7,0-1.2-.2-1.6-.5-.4-.4-.5-.8-.5-1.4v-.5h-7.3v.5c0,.6-.2,1.1-.5,1.4-.4.4-.9.5-1.5.5h0ZM336.8-557.8c.5,0,.9-.3,1.4-.7.4-.3.8-.7,1-1.2s.4-1.1.4-1.7-.1-1.1-.3-1.3c-.2-.3-.5-.4-1-.4s-.7,0-1,.3-.5.6-.7,1c-.1.4-.2,1-.2,1.6s0,1,.1,1.4c0,.4.2.7.3,1ZM336.1-551.9c-.5-.6-.9-1.3-1.4-2.1-.4-.8-.8-1.6-1.1-2.5s-.4-1.8-.4-2.7.2-2,.6-2.8c.4-.8,1-1.4,1.7-1.8.8-.4,1.8-.7,2.9-.7s2.5.3,3.2.9c.7.6,1.1,1.4,1.1,2.5s-.1,1.3-.4,1.8c-.3.5-.7.9-1.2,1.3-.5.3-1.1.6-1.8.9-.7.2-1.4.4-2.1.5.2.5.4,1,.7,1.6s.6,1.1,1,1.7c.4.5.7,1,1.1,1.5h-4,0ZM323.5-548.9c-1.2,0-2.1-.2-2.8-.6s-1.1-.9-1.4-1.7c-.3-.7-.4-1.6-.4-2.7v-4c0-.4-.1-.8-.3-1s-.5-.3-.8-.3h-.9v-2.6c0-.4,0-.7-.3-.9-.2-.2-.4-.3-.7-.3v-1l3.7-.3c.2,0,.4.4.5.6,0,.3.1.6.1,1v2.1h.4c.5,0,.9.2,1.2.5s.4.8.4,1.4v5.7c0,1,.1,1.7.4,2.2.3.5.7.7,1.2.7s1-.2,1.4-.5c.4-.4.7-.9.9-1.7s.3-1.9.3-3.2v-5.8c0-.6,0-1-.3-1.2-.2-.2-.5-.3-.9-.3v-1.1l4.1-.3c.2.2.3.5.3.9s.1.7.1,1.2v6.8c0,1.3-.2,2.5-.7,3.4-.5,1-1.2,1.7-2.1,2.2-.9.5-2.1.8-3.4.8ZM310.1-558h.3l.4-.9c.2-.4.3-.7.4-1.1.1-.4.2-.8.2-1.2s-.1-1-.4-1.3c-.3-.3-.6-.4-1.1-.4h-1.1c0,.5-.2,1-.2,1.4v1.3c0,.8.1,1.4.3,1.7s.6.5,1.3.5h0ZM299.4-555.9c.3,0,.6,0,.8,0s.4-.2.6-.3v-6.6h-.3c-.9,0-1.6.4-2.1,1.1-.5.7-.8,1.7-.8,3.1s.2,1.7.5,2.2.8.7,1.3.7h0ZM307.4-549.1s-.1-.2-.1-.3v-.4c0-.2,0-.5.1-.8,0-.3.2-.6.3-.9l2.1-5h-.7c-1.2,0-2.1-.3-2.7-.8-.5-.6-.8-1.5-.8-2.7v-1.4c0-.5.1-1,.2-1.5h-2v6.6c-.6.4-1.2.9-2,1.2-.8.4-1.7.5-2.7.5s-2.5-.4-3.3-1.1-1.2-1.8-1.2-3.2.5-3,1.6-3.9,2.5-1.4,4.5-1.4h9.7c1.4,0,2.5.3,3.1.9.6.6,1,1.3,1,2.3s0,.7-.1,1c0,.4-.2.8-.4,1.2s-.4,1-.6,1.6l-2.2,5.3c0,.2-.1.4-.2.5v.4c0,.2,0,.4.2.5.1,0,.3,0,.6,0v1.1l-4.2.3h-.2ZM280.3-557.2c.5,0,1-.3,1.4-.5s.7-.5,1-.8.4-.8.4-1.2-.1-.8-.4-1c-.2-.2-.6-.3-1-.3s-1,.2-1.3.6c-.3.4-.5.9-.5,1.6v.9c0,.3.2.6.3.8h.1ZM279-553.2c-.5-.4-.9-.9-1.3-1.3-.4-.5-.7-1-.9-1.5-.2-.6-.3-1.2-.3-1.9s.2-1.6.6-2.2c.4-.7,1-1.2,1.8-1.5.8-.4,1.8-.6,3-.6s2.5.2,3.3.7c.7.5,1.1,1.1,1.1,2s-.1,1.1-.4,1.5c-.3.4-.7.8-1.2,1.1s-1.1.5-1.7.7c-.6.2-1.3.3-2.1.4.3.5.7,1,1.2,1.4.5.5,1.1.9,1.7,1.3h-4.8ZM275.8-562.2h-.7c-.2,0-.4,0-.5-.2.2-.2.4-.5.5-.8s.2-.7.2-1.2,0-.8-.2-1.2c-.1-.3-.3-.6-.5-.9.2,0,.3-.2.5-.2h.7c.6,0,1.1.2,1.4.5.3.3.6.7.7,1.1h7.4c0-.4.3-.8.7-1.1s.8-.5,1.5-.5h.7c.2,0,.4,0,.5.2-.2.2-.4.5-.5.9-.1.3-.2.7-.2,1.1s0,.8.2,1.2c.1.3.3.6.5.9-.1,0-.3.2-.5.2h-.7c-.6,0-1.1-.2-1.4-.5-.3-.3-.6-.7-.7-1.2h-7.4c-.1.4-.4.8-.7,1.2-.3.3-.8.5-1.4.5h-.1ZM274.5-550.3h-.7c-.2,0-.4,0-.5-.2.2-.3.4-.6.5-1,0-.3.1-.7.1-1.1v-.8c0-.3,0-.5-.1-.7h5.7v1.3h-2.9v.5c0,.6-.2,1.1-.5,1.4-.4.4-.9.5-1.5.5h-.1ZM280.2-561.8v-3h2.9v3h-2.9ZM285.4-549.1c-.1-.2-.2-.5-.3-.8v-2c0-.3,0-.6-.2-.7-.1-.2-.4-.2-.7-.2h-6.3v-1.3h8.6c.8,0,1.3.2,1.6.5s.5.8.5,1.4v.7c0,.4,0,.7.3.9.2.2.5.2.9.2v1l-4.2.3h-.2ZM266.9-549.2c-1.7,0-3-.3-3.9-1s-1.4-1.7-1.4-3.2,0-1.3.3-1.8c.2-.5.5-1,.8-1.5s.7-.9,1.2-1.2c.4-.4.9-.7,1.3-1.1.6-.5,1.1-.9,1.5-1.2s.7-.6.9-.9.3-.6.3-.9,0-.6-.3-.7c-.2-.2-.4-.3-.7-.3v-1.1l3.9-.3c0,.2.2.4.3.7s.2.6.2,1.1-.1,1.3-.4,1.8c-.2.5-.6,1.1-1.2,1.6-.5.5-1.2,1.1-2.1,1.8-.7.5-1.2,1-1.7,1.4-.4.4-.7.9-.9,1.3-.2.4-.3,1-.3,1.6s0,.9.3,1.3c.2.4.5.7.8.9.4.2.8.3,1.4.3h.5v1.3h-.8ZM270.9-547.5c-.7,0-1.2-.2-1.5-.5s-.5-.7-.7-1.2h-1.6v-1.3h1.6c0-.4.3-.8.7-1.1.3-.3.8-.5,1.5-.5h.7c.2,0,.4,0,.5.2-.2.2-.4.5-.5.8s-.2.7-.2,1.2,0,.8.2,1.2c.1.4.3.6.5.8-.1,0-.3,0-.5.2h-.7v.2ZM255.4-554.6h.5c.5,0,1-.2,1.3-.5.3-.4.6-.9.7-1.5.2-.7.2-1.4.2-2.3s0-1.5-.2-2.1c0-.6-.4-1.1-.7-1.4-.3-.4-.7-.5-1.2-.5h-.6s0,8.3,0,8.3ZM246.1-553.3h.5c.2,0,.3,0,.4,0v-9.5h-.2c-.4,0-.8,0-1.2.4-.3.2-.7.6-.9,1.1-.3.4-.5,1-.6,1.6s-.2,1.4-.2,2.2c0,1.6.2,2.7.6,3.4s1,1,1.6,1h0ZM245.7-552c-1.6,0-2.9-.5-3.8-1.5s-1.3-2.3-1.3-4.1,0-1.9.4-2.7.7-1.5,1.2-2.1,1.2-1,2-1.3,1.7-.5,2.7-.5h9.3c1.6,0,2.8.4,3.8,1.2s1.4,2.1,1.4,3.9-.2,2.1-.6,3-1,1.5-1.8,2-1.8.7-3,.7h-3.8v-9.6h-2.1v9.9c-.4.2-1,.4-1.8.7s-1.7.4-2.7.4h.1Z"/>
  <path class="st6" d="M417.1-573.2v-13.4h3.1l.3,2.5c.5-.9,1.1-1.5,2-2.1.8-.5,1.8-.8,3-.8v3.6h-1c-.8,0-1.4.1-2,.4-.6.2-1.1.6-1.4,1.2-.3.6-.5,1.4-.5,2.4v6.1h-3.5ZM408.4-584.1c-.8,0-1.6.2-2.2.7s-1.1,1.2-1.2,2.2h6.7c0-.9-.4-1.6-1-2.1s-1.3-.8-2.2-.8h0ZM408.3-572.9c-1.3,0-2.5-.3-3.6-.9-1-.6-1.9-1.4-2.5-2.4s-.9-2.2-.9-3.6.3-2.6.9-3.7,1.4-1.9,2.4-2.5,2.3-.9,3.7-.9,2.5.3,3.5.9,1.8,1.4,2.3,2.4c.6,1,.9,2.1.9,3.3s0,.4,0,.6v.7h-10.2c0,1,.4,1.9,1.1,2.5s1.5.9,2.4.9,1.3-.2,1.8-.5.8-.7,1.1-1.2h3.5c-.3.8-.7,1.6-1.3,2.3-.6.7-1.3,1.2-2.2,1.6-.8.4-1.8.6-2.9.6h0ZM391.9-575.9c1.1,0,2-.4,2.7-1.1.7-.8,1.1-1.7,1.1-2.9s-.4-2.1-1.1-2.9c-.7-.8-1.6-1.1-2.7-1.1s-2,.4-2.7,1.1-1.1,1.7-1.1,2.9.4,2.1,1.1,2.9c.7.8,1.6,1.1,2.7,1.1ZM391.2-572.9c-1.3,0-2.4-.3-3.4-.9-1-.6-1.8-1.4-2.3-2.5s-.9-2.3-.9-3.6.3-2.5.9-3.6c.6-1.1,1.4-1.9,2.3-2.5,1-.6,2.1-.9,3.4-.9s1.9.2,2.6.6c.8.4,1.4.9,1.8,1.6v-7.9h3.5v19.4h-3.1l-.4-1.9c-.4.6-1,1.1-1.7,1.6s-1.6.7-2.8.7h0ZM369.4-573.2v-19.4h3.5v8.1c.4-.7,1.1-1.3,1.8-1.7.8-.4,1.7-.6,2.6-.6,1.7,0,2.9.5,3.8,1.6.9,1,1.4,2.6,1.4,4.6v7.6h-3.4v-7.2c0-1.2-.2-2-.7-2.6-.4-.6-1.2-.9-2.2-.9s-1.8.3-2.4,1c-.6.7-.9,1.6-.9,2.9v6.9h-3.5v-.3ZM360-575.6c1,0,1.8-.3,2.3-1,.6-.6.9-1.4,1.1-2.4h-2.9c-.9,0-1.6.2-2,.5s-.6.7-.6,1.2.2.9.6,1.2c.4.3.9.4,1.6.4h-.1ZM359.2-572.9c-1.2,0-2.1-.2-2.8-.5-.7-.4-1.3-.9-1.6-1.5-.4-.6-.5-1.3-.5-2,0-1.2.5-2.2,1.5-3s2.4-1.2,4.4-1.2h3.4v-.3c0-.9-.3-1.6-.8-2s-1.2-.6-1.9-.6-1.3.2-1.8.5-.8.8-1,1.5h-3.4c0-1,.4-1.8,1-2.5s1.3-1.3,2.2-1.6c.9-.4,1.9-.6,3-.6,1.9,0,3.4.5,4.5,1.4s1.6,2.3,1.6,4v8.2h-2.9l-.3-2.2c-.4.7-1,1.3-1.7,1.8s-1.6.7-2.7.7h-.2ZM331.7-573.2v-18.9h4.1l6,12,5.9-12h4.1v18.9h-3.5v-13l-5.3,10.3h-2.7l-5.3-10.3v13h-3.5.2ZM316.6-575.6c1,0,1.8-.3,2.3-1,.6-.6.9-1.4,1.1-2.4h-2.9c-.9,0-1.6.2-2,.5s-.6.7-.6,1.2.2.9.6,1.2c.4.3.9.4,1.6.4h-.1ZM315.8-572.9c-1.2,0-2.1-.2-2.8-.5-.7-.4-1.3-.9-1.6-1.5s-.5-1.3-.5-2c0-1.2.5-2.2,1.5-3s2.4-1.2,4.4-1.2h3.4v-.3c0-.9-.3-1.6-.8-2s-1.2-.6-1.9-.6-1.3.2-1.8.5-.8.8-1,1.5h-3.4c0-1,.4-1.8,1-2.5s1.3-1.3,2.2-1.6c.9-.4,1.9-.6,3-.6,1.9,0,3.4.5,4.5,1.4,1.1,1,1.6,2.3,1.6,4v8.2h-2.9l-.3-2.2c-.4.7-1,1.3-1.7,1.8s-1.6.7-2.7.7h-.2ZM302.3-567.3v-2.9h1.1c.6,0,1,0,1.3-.4s.4-.6.4-1.2v-14.8h3.5v14.8c0,1.6-.4,2.8-1.2,3.5s-1.9,1-3.3,1h-1.8ZM306.7-588.7c-.6,0-1.2-.2-1.6-.6-.4-.4-.6-.9-.6-1.4s.2-1,.6-1.4c.4-.4.9-.6,1.6-.6s1.1.2,1.5.6.6.8.6,1.4-.2,1.1-.6,1.4c-.4.4-.9.6-1.5.6ZM296-584.1c-.8,0-1.6.2-2.2.7-.6.5-1.1,1.2-1.2,2.2h6.7c0-.9-.4-1.6-1-2.1s-1.3-.8-2.2-.8h-.1ZM296-572.9c-1.4,0-2.5-.3-3.6-.9-1-.6-1.9-1.4-2.5-2.4s-.9-2.2-.9-3.6.3-2.6.9-3.7c.6-1.1,1.4-1.9,2.4-2.5s2.3-.9,3.7-.9,2.5.3,3.5.9,1.8,1.4,2.3,2.4c.6,1,.9,2.1.9,3.3s0,.4,0,.6v.7h-10.2c0,1,.4,1.9,1.1,2.5.7.6,1.5.9,2.4.9s1.3-.2,1.8-.5.8-.7,1.1-1.2h3.5c-.3.8-.7,1.6-1.3,2.3s-1.3,1.2-2.2,1.6c-.8.4-1.8.6-2.9.6h0ZM279.8-573.2v-13.4h3.1l.3,2.5c.5-.9,1.1-1.5,2-2.1.8-.5,1.8-.8,3-.8v3.6h-1c-.8,0-1.4.1-2,.4-.6.2-1.1.6-1.4,1.2-.3.6-.5,1.4-.5,2.4v6.1h-3.5ZM271-584.1c-.8,0-1.6.2-2.2.7s-1.1,1.2-1.2,2.2h6.7c0-.9-.4-1.6-1-2.1s-1.3-.8-2.2-.8h-.1ZM271-572.9c-1.3,0-2.5-.3-3.6-.9-1-.6-1.9-1.4-2.5-2.4s-.9-2.2-.9-3.6.3-2.6.9-3.7,1.4-1.9,2.4-2.5,2.3-.9,3.7-.9,2.5.3,3.5.9,1.8,1.4,2.3,2.4c.6,1,.9,2.1.9,3.3s0,.4,0,.6v.7h-10.2c0,1,.4,1.9,1.1,2.5s1.5.9,2.4.9,1.3-.2,1.8-.5.8-.7,1.1-1.2h3.5c-.3.8-.7,1.6-1.3,2.3s-1.3,1.2-2.2,1.6c-.8.4-1.8.6-2.9.6h0ZM241.5-573.2v-18.9h4.1l6,12,5.9-12h4.1v18.9h-3.5v-13l-5.3,10.3h-2.7l-5.3-10.3v13h-3.5.2Z"/>
  <path class="st5" d="M-129.7-573.2h-26.2c-1,0-1.9-.8-1.9-1.9v-20.6c0-1,.8-1.9,1.9-1.9h18.6c1,0,1.9.8,1.9,1.9v13.3c0,1-.8,1.9-1.9,1.9h-11.3c-1,0-1.9-.8-1.9-1.9v-6.7c0-1,.8-1.9,1.9-1.9s1.9.8,1.9,1.9v4.9h7.5v-9.5h-14.8v16.9h22.5v-24.7h-24.4c-1,0-1.9-.8-1.9-1.9s.8-1.9,1.9-1.9h26.2c1,0,1.9.8,1.9,1.9v28.3c0,1-.8,1.9-1.9,1.9h0Z"/>
  <path class="st5" d="M-124.8-576.1v-26.2c0-1,.9-1.9,1.9-1.9h21.3c1.1,0,1.9.8,1.9,1.9v18.6c0,1-.9,1.9-1.9,1.9h-13.7c-1.1,0-1.9-.8-1.9-1.9v-11.3c0-1,.9-1.9,1.9-1.9h7c1.1,0,1.9.8,1.9,1.9s-.9,1.9-1.9,1.9h-5v7.5h9.8v-14.8h-17.4v22.5h25.3v-24.4c0-1,.9-1.9,1.9-1.9s1.9.8,1.9,1.9v26.2c0,1-.9,1.9-1.9,1.9h-29.1c-1.1,0-1.9-.8-1.9-1.9h0Z"/>
  <path class="st5" d="M-119.9-570.2h26.2c1,0,1.9.9,1.9,1.9v21.3c0,1.1-.8,1.9-1.9,1.9h-18.6c-1,0-1.9-.9-1.9-1.9v-13.7c0-1.1.8-1.9,1.9-1.9h11.3c1,0,1.9.9,1.9,1.9v6.9c0,1.1-.8,1.9-1.9,1.9s-1.9-.9-1.9-1.9v-5h-7.5v9.8h14.8v-17.4h-22.5v25.3h24.3c1,0,1.9.9,1.9,1.9s-.8,1.9-1.9,1.9h-26.2c-1,0-1.9-.9-1.9-1.9v-29.1c0-1.1.8-1.9,1.9-1.9h0Z"/>
  <path class="st5" d="M-125.8-566.3v26.2c0,1-.8,1.9-1.9,1.9h-20.6c-1,0-1.9-.8-1.9-1.9v-18.6c0-1,.8-1.9,1.9-1.9h13.3c1,0,1.9.8,1.9,1.9v11.3c0,1-.8,1.9-1.9,1.9h-6.7c-1,0-1.9-.8-1.9-1.9s.8-1.9,1.9-1.9h4.9v-7.5h-9.5v14.8h16.9v-22.5h-24.5v24.3c0,1-.8,1.9-1.9,1.9s-1.9-.8-1.9-1.9v-26.2c0-1,.8-1.9,1.9-1.9h28.3c1,0,1.9.8,1.9,1.9h-.2Z"/>
  <path class="st5" d="M42.2-547.6c-.7,0-1.2-.2-1.6-.5-.4-.3-.6-.7-.7-1.1h-1.8c-.9,0-1.8,0-2.5-.3-.7-.2-1.3-.4-1.8-.8-.5-.4-.9-1-1.1-1.6-.3-.7-.4-1.5-.4-2.6v-1.7c0-1.8.3-3.3.9-4.5.6-1.2,1.4-2.1,2.5-2.6,1-.6,2.2-.9,3.6-.9h3.5c0,.2-.1.4-.1.6v.7c0,.4,0,.8.2,1.2.1.4.3.7.5.9-.1,0-.3,0-.5,0h-.6c-.7,0-1.2-.2-1.6-.6-.4-.4-.6-.8-.6-1.4v-.4h-.5c-.7,0-1.4.2-2,.7-.6.4-1.1,1.2-1.4,2.2-.3,1-.5,2.3-.5,3.9v2.1c0,.7,0,1.4.2,1.8.2.5.4.8.7,1.1s.6.5,1.1.6c.4,0,.9,0,1.4,0h1c0-.4.3-.8.7-1.1s.9-.5,1.6-.5.4,0,.6,0,.3,0,.4,0c-.2.2-.3.5-.5.9s-.2.7-.2,1.2,0,.8.2,1.2c.1.4.3.6.5.9-.1,0-.3,0-.4,0h-.6l-.2.2ZM18.5-548.5h-.7c-.2,0-.4,0-.5-.2.2-.3.4-.6.5-.9,0-.3.1-.7.1-1.1v-.8c0-.3,0-.5-.1-.7h12.9c0,.2-.1.4-.1.7v.8c0,.4,0,.8.1,1.1,0,.3.2.6.4.9-.1,0-.3,0-.5.2h-.7c-.7,0-1.2-.2-1.6-.5-.4-.4-.5-.8-.5-1.4v-.5h-7.3v.5c0,.6-.2,1.1-.5,1.4-.4.4-.9.5-1.5.5h0ZM23.3-557.8c.5,0,.9-.3,1.4-.7.4-.3.8-.7,1-1.2s.4-1.1.4-1.7-.1-1.1-.3-1.3c-.2-.3-.5-.4-1-.4s-.7,0-1,.3-.5.6-.7,1c-.1.4-.2,1-.2,1.6s0,1,.1,1.4c0,.4.2.7.3,1ZM22.6-551.9c-.5-.6-.9-1.3-1.4-2.1-.4-.8-.8-1.6-1.1-2.5s-.4-1.8-.4-2.7.2-2,.6-2.8c.4-.8,1-1.4,1.7-1.8.8-.4,1.8-.7,2.9-.7s2.5.3,3.2.9c.7.6,1.1,1.4,1.1,2.5s-.1,1.3-.4,1.8c-.3.5-.7.9-1.2,1.3-.5.3-1.1.6-1.8.9-.7.2-1.4.4-2.1.5.2.5.4,1,.7,1.6s.6,1.1,1,1.7c.4.5.7,1,1.1,1.5h-4,0ZM10-548.9c-1.2,0-2.1-.2-2.8-.6s-1.1-.9-1.4-1.7c-.3-.7-.4-1.6-.4-2.7v-4c0-.4-.1-.8-.3-1s-.5-.3-.8-.3h-.9v-2.6c0-.4,0-.7-.3-.9-.2-.2-.4-.3-.7-.3v-1l3.7-.3c.2,0,.4.4.5.6,0,.3.1.6.1,1v2.1h.4c.5,0,.9.2,1.2.5s.4.8.4,1.4v5.7c0,1,.1,1.7.4,2.2.3.5.7.7,1.2.7s1-.2,1.4-.5c.4-.4.7-.9.9-1.7s.3-1.9.3-3.2v-5.8c0-.6,0-1-.3-1.2-.2-.2-.5-.3-.9-.3v-1.1l4.1-.3c.2.2.3.5.3.9s.1.7.1,1.2v6.8c0,1.3-.2,2.5-.7,3.4-.5,1-1.2,1.7-2.1,2.2-.9.5-2.1.8-3.4.8ZM-3.4-558h.3l.4-.9c.2-.4.3-.7.4-1.1.1-.4.2-.8.2-1.2s-.1-1-.4-1.3c-.3-.3-.6-.4-1.1-.4h-1.1c0,.5-.2,1-.2,1.4v1.3c0,.8.1,1.4.3,1.7s.6.5,1.3.5h0ZM-14.1-555.9c.3,0,.6,0,.8,0s.4-.2.6-.3v-6.6h-.3c-.9,0-1.6.4-2.1,1.1-.5.7-.8,1.7-.8,3.1s.2,1.7.5,2.2.8.7,1.3.7h0ZM-6.1-549.1s-.1-.2-.1-.3v-.4c0-.2,0-.5.1-.8,0-.3.2-.6.3-.9l2.1-5h-.7c-1.2,0-2.1-.3-2.7-.8-.5-.6-.8-1.5-.8-2.7v-1.4c0-.5.1-1,.2-1.5h-2v6.6c-.6.4-1.2.9-2,1.2-.8.4-1.7.5-2.7.5s-2.5-.4-3.3-1.1-1.2-1.8-1.2-3.2.5-3,1.6-3.9,2.5-1.4,4.5-1.4H-3.1c1.4,0,2.5.3,3.1.9.6.6,1,1.3,1,2.3s0,.7-.1,1c0,.4-.2.8-.4,1.2s-.4,1-.6,1.6l-2.2,5.3c0,.2-.1.4-.2.5v.4c0,.2,0,.4.2.5.1,0,.3,0,.6,0v1.1l-4.2.3h-.2ZM-33.2-557.2c.5,0,1-.3,1.4-.5s.7-.5,1-.8.4-.8.4-1.2-.1-.8-.4-1c-.2-.2-.6-.3-1-.3s-1,.2-1.3.6c-.3.4-.5.9-.5,1.6v.9c0,.3.2.6.3.8h.1ZM-34.5-553.2c-.5-.4-.9-.9-1.3-1.3-.4-.5-.7-1-.9-1.5-.2-.6-.3-1.2-.3-1.9s.2-1.6.6-2.2c.4-.7,1-1.2,1.8-1.5.8-.4,1.8-.6,3-.6s2.5.2,3.3.7c.7.5,1.1,1.1,1.1,2s-.1,1.1-.4,1.5c-.3.4-.7.8-1.2,1.1s-1.1.5-1.7.7c-.6.2-1.3.3-2.1.4.3.5.7,1,1.2,1.4.5.5,1.1.9,1.7,1.3h-4.8ZM-37.7-562.2h-.7c-.2,0-.4,0-.5-.2.2-.2.4-.5.5-.8s.2-.7.2-1.2,0-.8-.2-1.2c-.1-.3-.3-.6-.5-.9.2,0,.3-.2.5-.2h.7c.6,0,1.1.2,1.4.5.3.3.6.7.7,1.1h7.4c0-.4.3-.8.7-1.1s.8-.5,1.5-.5h.7c.2,0,.4,0,.5.2-.2.2-.4.5-.5.9-.1.3-.2.7-.2,1.1s0,.8.2,1.2c.1.3.3.6.5.9-.1,0-.3.2-.5.2h-.7c-.6,0-1.1-.2-1.4-.5-.3-.3-.6-.7-.7-1.2h-7.4c-.1.4-.4.8-.7,1.2-.3.3-.8.5-1.4.5h-.1ZM-39-550.3h-.7c-.2,0-.4,0-.5-.2.2-.3.4-.6.5-1,0-.3.1-.7.1-1.1v-.8c0-.3,0-.5-.1-.7h5.7v1.3h-2.9v.5c0,.6-.2,1.1-.5,1.4-.4.4-.9.5-1.5.5h-.1ZM-33.3-561.8v-3h2.9v3h-2.9ZM-28.1-549.1c-.1-.2-.2-.5-.3-.8v-2c0-.3,0-.6-.2-.7-.1-.2-.4-.2-.7-.2h-6.3v-1.3h8.6c.8,0,1.3.2,1.6.5s.5.8.5,1.4v.7c0,.4,0,.7.3.9.2.2.5.2.9.2v1l-4.2.3h-.2ZM-46.6-549.2c-1.7,0-3-.3-3.9-1s-1.4-1.7-1.4-3.2,0-1.3.3-1.8c.2-.5.5-1,.8-1.5s.7-.9,1.2-1.2c.4-.4.9-.7,1.3-1.1.6-.5,1.1-.9,1.5-1.2s.7-.6.9-.9.3-.6.3-.9,0-.6-.3-.7c-.2-.2-.4-.3-.7-.3v-1.1l3.9-.3c0,.2.2.4.3.7s.2.6.2,1.1-.1,1.3-.4,1.8c-.2.5-.6,1.1-1.2,1.6-.5.5-1.2,1.1-2.1,1.8-.7.5-1.2,1-1.7,1.4-.4.4-.7.9-.9,1.3-.2.4-.3,1-.3,1.6s0,.9.3,1.3c.2.4.5.7.8.9.4.2.8.3,1.4.3h.5v1.3h-.8ZM-42.6-547.5c-.7,0-1.2-.2-1.5-.5s-.5-.7-.7-1.2h-1.6v-1.3h1.6c0-.4.3-.8.7-1.1.3-.3.8-.5,1.5-.5h.7c.2,0,.4,0,.5.2-.2.2-.4.5-.5.8s-.2.7-.2,1.2,0,.8.2,1.2c.1.4.3.6.5.8-.1,0-.3,0-.5.2h-.7v.2ZM-58.1-554.6h.5c.5,0,1-.2,1.3-.5.3-.4.6-.9.7-1.5.2-.7.2-1.4.2-2.3s0-1.5-.2-2.1c0-.6-.4-1.1-.7-1.4-.3-.4-.7-.5-1.2-.5h-.6s0,8.3,0,8.3ZM-67.4-553.3h.5c.2,0,.3,0,.4,0v-9.5h-.2c-.4,0-.8,0-1.2.4-.3.2-.7.6-.9,1.1-.3.4-.5,1-.6,1.6s-.2,1.4-.2,2.2c0,1.6.2,2.7.6,3.4s1,1,1.6,1h0ZM-67.8-552c-1.6,0-2.9-.5-3.8-1.5s-1.3-2.3-1.3-4.1,0-1.9.4-2.7.7-1.5,1.2-2.1,1.2-1,2-1.3,1.7-.5,2.7-.5h9.3c1.6,0,2.8.4,3.8,1.2s1.4,2.1,1.4,3.9-.2,2.1-.6,3-1,1.5-1.8,2-1.8.7-3,.7h-3.8v-9.6h-2.1v9.9c-.4.2-1,.4-1.8.7s-1.7.4-2.7.4h.1Z"/>
  <path class="st5" d="M103.6-573.2v-13.4h3.1l.3,2.5c.5-.9,1.1-1.5,2-2.1.8-.5,1.8-.8,3-.8v3.6h-1c-.8,0-1.4.1-2,.4-.6.2-1.1.6-1.4,1.2-.3.6-.5,1.4-.5,2.4v6.1h-3.5ZM94.9-584.1c-.8,0-1.6.2-2.2.7s-1.1,1.2-1.2,2.2h6.7c0-.9-.4-1.6-1-2.1s-1.3-.8-2.2-.8h0ZM94.8-572.9c-1.3,0-2.5-.3-3.6-.9-1-.6-1.9-1.4-2.5-2.4s-.9-2.2-.9-3.6.3-2.6.9-3.7,1.4-1.9,2.4-2.5,2.3-.9,3.7-.9,2.5.3,3.5.9,1.8,1.4,2.3,2.4c.6,1,.9,2.1.9,3.3s0,.4,0,.6v.7h-10.2c0,1,.4,1.9,1.1,2.5s1.5.9,2.4.9,1.3-.2,1.8-.5.8-.7,1.1-1.2h3.5c-.3.8-.7,1.6-1.3,2.3-.6.7-1.3,1.2-2.2,1.6-.8.4-1.8.6-2.9.6h0ZM78.4-575.9c1.1,0,2-.4,2.7-1.1.7-.8,1.1-1.7,1.1-2.9s-.4-2.1-1.1-2.9c-.7-.8-1.6-1.1-2.7-1.1s-2,.4-2.7,1.1-1.1,1.7-1.1,2.9.4,2.1,1.1,2.9c.7.8,1.6,1.1,2.7,1.1ZM77.7-572.9c-1.3,0-2.4-.3-3.4-.9-1-.6-1.8-1.4-2.3-2.5s-.9-2.3-.9-3.6.3-2.5.9-3.6c.6-1.1,1.4-1.9,2.3-2.5,1-.6,2.1-.9,3.4-.9s1.9.2,2.6.6c.8.4,1.4.9,1.8,1.6v-7.9h3.5v19.4h-3.1l-.4-1.9c-.4.6-1,1.1-1.7,1.6s-1.6.7-2.8.7h0ZM55.9-573.2v-19.4h3.5v8.1c.4-.7,1.1-1.3,1.8-1.7.8-.4,1.7-.6,2.6-.6,1.7,0,2.9.5,3.8,1.6.9,1,1.4,2.6,1.4,4.6v7.6h-3.4v-7.2c0-1.2-.2-2-.7-2.6-.4-.6-1.2-.9-2.2-.9s-1.8.3-2.4,1c-.6.7-.9,1.6-.9,2.9v6.9h-3.5v-.3ZM46.5-575.6c1,0,1.8-.3,2.3-1,.6-.6.9-1.4,1.1-2.4h-2.9c-.9,0-1.6.2-2,.5s-.6.7-.6,1.2.2.9.6,1.2c.4.3.9.4,1.6.4h-.1ZM45.7-572.9c-1.2,0-2.1-.2-2.8-.5-.7-.4-1.3-.9-1.6-1.5-.4-.6-.5-1.3-.5-2,0-1.2.5-2.2,1.5-3s2.4-1.2,4.4-1.2h3.4v-.3c0-.9-.3-1.6-.8-2s-1.2-.6-1.9-.6-1.3.2-1.8.5-.8.8-1,1.5h-3.4c0-1,.4-1.8,1-2.5s1.3-1.3,2.2-1.6c.9-.4,1.9-.6,3-.6,1.9,0,3.4.5,4.5,1.4s1.6,2.3,1.6,4v8.2h-2.9l-.3-2.2c-.4.7-1,1.3-1.7,1.8s-1.6.7-2.7.7h-.2ZM18.2-573.2v-18.9h4.1l6,12,5.9-12h4.1v18.9h-3.5v-13l-5.3,10.3h-2.7l-5.3-10.3v13h-3.5.2ZM3.1-575.6c1,0,1.8-.3,2.3-1,.6-.6.9-1.4,1.1-2.4h-2.9c-.9,0-1.6.2-2,.5s-.6.7-.6,1.2.2.9.6,1.2c.4.3.9.4,1.6.4h-.1ZM2.3-572.9c-1.2,0-2.1-.2-2.8-.5-.7-.4-1.3-.9-1.6-1.5s-.5-1.3-.5-2c0-1.2.5-2.2,1.5-3s2.4-1.2,4.4-1.2h3.4v-.3c0-.9-.3-1.6-.8-2s-1.2-.6-1.9-.6-1.3.2-1.8.5-.8.8-1,1.5h-3.4c0-1,.4-1.8,1-2.5s1.3-1.3,2.2-1.6c.9-.4,1.9-.6,3-.6,1.9,0,3.4.5,4.5,1.4,1.1,1,1.6,2.3,1.6,4v8.2h-2.9l-.3-2.2c-.4.7-1,1.3-1.7,1.8s-1.6.7-2.7.7h-.2ZM-11.2-567.3v-2.9h1.1c.6,0,1,0,1.3-.4s.4-.6.4-1.2v-14.8h3.5v14.8c0,1.6-.4,2.8-1.2,3.5s-1.9,1-3.3,1h-1.8ZM-6.8-588.7c-.6,0-1.2-.2-1.6-.6-.4-.4-.6-.9-.6-1.4s.2-1,.6-1.4c.4-.4.9-.6,1.6-.6s1.1.2,1.5.6.6.8.6,1.4-.2,1.1-.6,1.4c-.4.4-.9.6-1.5.6ZM-17.5-584.1c-.8,0-1.6.2-2.2.7-.6.5-1.1,1.2-1.2,2.2h6.7c0-.9-.4-1.6-1-2.1s-1.3-.8-2.2-.8h-.1ZM-17.5-572.9c-1.4,0-2.5-.3-3.6-.9-1-.6-1.9-1.4-2.5-2.4s-.9-2.2-.9-3.6.3-2.6.9-3.7c.6-1.1,1.4-1.9,2.4-2.5s2.3-.9,3.7-.9,2.5.3,3.5.9,1.8,1.4,2.3,2.4c.6,1,.9,2.1.9,3.3s0,.4,0,.6v.7h-10.2c0,1,.4,1.9,1.1,2.5.7.6,1.5.9,2.4.9s1.3-.2,1.8-.5.8-.7,1.1-1.2h3.5c-.3.8-.7,1.6-1.3,2.3s-1.3,1.2-2.2,1.6c-.8.4-1.8.6-2.9.6h0ZM-33.7-573.2v-13.4h3.1l.3,2.5c.5-.9,1.1-1.5,2-2.1.8-.5,1.8-.8,3-.8v3.6h-1c-.8,0-1.4.1-2,.4-.6.2-1.1.6-1.4,1.2-.3.6-.5,1.4-.5,2.4v6.1h-3.5ZM-42.5-584.1c-.8,0-1.6.2-2.2.7s-1.1,1.2-1.2,2.2h6.7c0-.9-.4-1.6-1-2.1s-1.3-.8-2.2-.8h-.1ZM-42.5-572.9c-1.3,0-2.5-.3-3.6-.9-1-.6-1.9-1.4-2.5-2.4s-.9-2.2-.9-3.6.3-2.6.9-3.7,1.4-1.9,2.4-2.5,2.3-.9,3.7-.9,2.5.3,3.5.9,1.8,1.4,2.3,2.4c.6,1,.9,2.1.9,3.3s0,.4,0,.6v.7h-10.2c0,1,.4,1.9,1.1,2.5s1.5.9,2.4.9,1.3-.2,1.8-.5.8-.7,1.1-1.2h3.5c-.3.8-.7,1.6-1.3,2.3s-1.3,1.2-2.2,1.6c-.8.4-1.8.6-2.9.6h0ZM-72-573.2v-18.9h4.1l6,12,5.9-12h4.1v18.9h-3.5v-13l-5.3,10.3h-2.7l-5.3-10.3v13h-3.5.2Z"/>
  <image width="842" height="596" transform="translate(284.8 -25.4) scale(.3)" xlink:href="Meraja Mahder Logo-1.png"/>
  <g class="st7">
    <g class="st2">
      <image width="842" height="596" transform="translate(-64.2 -368.1) scale(.3)" xlink:href="Meraja Mahder Logo-2.png"/>
    </g>
  </g>
  <g class="st4">
    <g class="st3">
      <image width="842" height="596" transform="translate(267.1 -369.9) scale(.3)" xlink:href="Meraja Mahder Logo-3.png"/>
    </g>
  </g>
</svg>